<svg height="182.2" viewBox="0 0 184.6 182.2" width="184.6" xmlns="http://www.w3.org/2000/svg"><ellipse cx="92.3" cy="91.1" fill="#58595b" rx="91.8" ry="90.6" stroke="#fff" stroke-miterlimit="10"/><g fill="#f1f2f2"><ellipse cx="114.8" cy="60.5" rx="20.4" ry="29.8" stroke="#231f20" stroke-miterlimit="10" stroke-width=".5"/><ellipse cx="68" cy="60.5" rx="20.4" ry="29.8" stroke="#231f20" stroke-miterlimit="10" stroke-width=".5"/><path d="m136.3 114.6a5.7 5.7 0 0 1 -1.1-1.2c-5.1-7.8-18.9-16.9-41.2-17.1h-.9c-22 0-35.6 8.6-41.1 16.7a3.6 3.6 0 0 1 -1.1 1l-1.4 1.4c-4.7 5.2-7 11-6.7 16.4s3.7 10.4 9.4 13a17 17 0 0 0 7.4 1.6c5.3 0 10.3-2.2 15.9-4.7a119.6 119.6 0 0 1 11.5-4.5 45.5 45.5 0 0 1 5.5-.2 62.7 62.7 0 0 1 7 .3 93.3 93.3 0 0 1 11 4.6c5.3 2.5 10.3 4.9 15.7 4.9a16.5 16.5 0 0 0 6.6-1.3c11.7-4.8 14-17.9 5-29.3z"/><path d="m154.3 78.2c-9.9 0-17.7 9.1-17.7 20.8s7.8 20.9 17.7 20.9 17.8-9.2 17.8-20.9-7.8-20.8-17.8-20.8z"/><path d="m52.2 99c0-11.7-7.8-20.8-17.7-20.8s-17.7 9.1-17.7 20.8 7.8 20.9 17.7 20.9 17.7-9.2 17.7-20.9z"/></g></svg>