<svg xmlns="http://www.w3.org/2000/svg" width="184.6" height="182.2" viewBox="0 0 184.6 182.2"><title>Asset 1</title><g id="Layer_2" data-name="Layer 2"><g id="Isolation_Mode" data-name="Isolation Mode"><ellipse cx="92.3" cy="91.1" rx="91.8" ry="90.6" fill="#58595b" stroke="#fff" stroke-miterlimit="10"/><ellipse cx="114.8" cy="60.5" rx="20.4" ry="29.8" fill="#f1f2f2" stroke="#231f20" stroke-miterlimit="10" stroke-width="0.5"/><ellipse cx="68" cy="60.5" rx="20.4" ry="29.8" fill="#f1f2f2" stroke="#231f20" stroke-miterlimit="10" stroke-width="0.5"/><path d="M136.3,114.6a5.7,5.7,0,0,1-1.1-1.2c-5.1-7.8-18.9-16.9-41.2-17.1h-.9c-22,0-35.6,8.6-41.1,16.7a3.6,3.6,0,0,1-1.1,1l-1.4,1.4c-4.7,5.2-7,11-6.7,16.4s3.7,10.4,9.4,13a17,17,0,0,0,7.4,1.6c5.3,0,10.3-2.2,15.9-4.7A119.6,119.6,0,0,1,87,137.2a45.5,45.5,0,0,1,5.5-.2,62.7,62.7,0,0,1,7,.3,93.3,93.3,0,0,1,11,4.6c5.3,2.5,10.3,4.9,15.7,4.9a16.5,16.5,0,0,0,6.6-1.3c11.7-4.8,14-17.9,5-29.3Z" fill="#f1f2f2"/><path d="M154.3,78.2c-9.9,0-17.7,9.1-17.7,20.8s7.8,20.9,17.7,20.9,17.8-9.2,17.8-20.9S164.3,78.2,154.3,78.2Z" fill="#f1f2f2"/><path d="M52.2,99c0-11.7-7.8-20.8-17.7-20.8S16.8,87.3,16.8,99s7.8,20.9,17.7,20.9S52.2,110.7,52.2,99Z" fill="#f1f2f2"/></g></g></svg>